<?xml version="1.0" standalone="no"?>
<!DOCTYPE svg PUBLIC "-//W3C//DTD SVG 1.1//EN" "http://www.w3.org/Graphics/SVG/1.1/DTD/svg11.dtd" >
<svg xmlns="http://www.w3.org/2000/svg" xmlns:xlink="http://www.w3.org/1999/xlink" version="1.1">
<metadata></metadata>
<defs>
<font id="exo_2extra_bold_italic" horiz-adv-x="1232" >
<font-face units-per-em="2048" ascent="1638" descent="-410" />
<missing-glyph horiz-adv-x="436" />
<glyph horiz-adv-x="0" />
<glyph unicode="&#xd;" horiz-adv-x="681" />
<glyph unicode=" "  horiz-adv-x="436" />
<glyph unicode="&#x09;" horiz-adv-x="436" />
<glyph unicode="&#xa0;" horiz-adv-x="436" />
<glyph unicode="!" horiz-adv-x="643" d="M86 135l10 92q19 121 144 121h75q66 0 98.5 -36t22.5 -101l-12 -90q-14 -121 -141 -121h-74q-141 0 -123 135zM158 457l24 454l70 512h369l-70 -512l-102 -454h-291z" />
<glyph unicode="&#x22;" horiz-adv-x="788" d="M158 952l43 461h262l-86 -461h-219zM508 952l43 461h262l-86 -461h-219z" />
<glyph unicode="#" horiz-adv-x="1490" d="M23 387l75 219h234l78 242h-236l74 219h229l109 346h280l-108 -346h233l109 346h280l-108 -346h231l-73 -219h-226l-78 -242h228l-76 -219h-219l-123 -387h-281l123 387h-233l-123 -387h-281l123 387h-241zM612 606h234l78 242h-234z" />
<glyph unicode="$" horiz-adv-x="1183" d="M14 37l39 270q399 -10 457 -10q111 0 150.5 19.5t50.5 78.5q8 45 -9.5 67.5t-68.5 43.5l-254 119q-160 76 -212 177t-34 249q27 217 148.5 301t375.5 88l50 182h276l-51 -195q131 -16 250 -53l-37 -250q-362 6 -463 6q-90 0 -125 -16t-43 -78q-8 -45 10.5 -68.5 t85.5 -52.5l236 -106q162 -74 213 -170t33 -260q-27 -231 -141.5 -316.5t-385.5 -89.5l-49 -204h-276l51 219q-135 12 -277 49z" />
<glyph unicode="%" horiz-adv-x="1871" d="M113 1034q33 233 118.5 320.5t278.5 87.5q205 0 281.5 -97.5t44.5 -338.5q-33 -233 -119 -320.5t-283 -87.5q-201 0 -277.5 98.5t-43.5 337.5zM324 0l1009 1413h238l-1008 -1413h-239zM375 835q10 -38 65 -38q61 0 84 43t41 194q16 133 5 171t-64 38q-61 0 -83 -43 t-40 -194q-18 -133 -8 -171zM1065 408q33 233 118.5 320t278.5 87q205 0 282 -97t44 -337q-33 -233 -119 -320.5t-283 -87.5q-203 0 -278.5 97.5t-42.5 337.5zM1326 210q11 -38 67 -38q61 0 83.5 42t41.5 194q16 133 4.5 170.5t-64.5 37.5q-61 0 -82.5 -42t-40.5 -193 q-20 -133 -9 -171z" />
<glyph unicode="&#x26;" horiz-adv-x="1544" d="M47 375q18 156 98 250t226 102l2 12q-106 8 -157.5 106.5t-27.5 233.5q20 115 68.5 188.5t128.5 110.5t166 49.5t215 12.5q201 0 352 -47l-59 -254q-147 27 -281 26q-115 0 -157.5 -29.5t-57.5 -127.5q-12 -94 16.5 -128t112.5 -34h361q8 80 8 192h311q0 -96 -6 -192h170 l-35 -242h-164q-29 -141 -82 -250q-186 -381 -729 -381q-276 0 -389.5 97.5t-89.5 304.5zM457 424q-10 -86 24.5 -120t130.5 -34q248 0 351 197q35 59 53 137h-359q-94 0 -141 -39t-59 -141z" />
<glyph unicode="'" horiz-adv-x="438" d="M158 952l43 461h262l-86 -461h-219z" />
<glyph unicode="(" horiz-adv-x="755" d="M72 653q59 410 236 643.5t509 323.5l43 -164q-336 -135 -432 -829q-51 -301 -9 -515t195 -290l-47 -152q-311 92 -432 334t-63 649z" />
<glyph unicode=")" horiz-adv-x="755" d="M-94 -176q336 143 434 831q51 309 10.5 521t-194.5 282l45 154q311 -90 432 -332t63 -655q-59 -408 -237 -640.5t-508 -324.5z" />
<glyph unicode="*" horiz-adv-x="931" d="M129 1075l80 193l225 -105l-6 -88l-55 -51zM199 801l264 262l16 354h205l-80 -352l189 -264l-168 -119l-103 246l-172 -246zM641 1073l18 88l240 105l39 -195l-252 -53z" />
<glyph unicode="+" horiz-adv-x="1079" d="M49 481l41 275h336l47 334h275l-48 -334h336l-39 -275h-338l-47 -331h-272l47 331h-338z" />
<glyph unicode="," horiz-adv-x="514" d="M18 121l15 100q12 72 45.5 99.5t105.5 27.5h70q74 0 101.5 -31.5t17.5 -105.5l-19 -131q-14 -100 -61 -213t-107 -191l-155 58q43 106 84 272q-57 -2 -80 26.5t-17 88.5z" />
<glyph unicode="-" horiz-adv-x="811" d="M78 412l33 225h602l-33 -225h-602z" />
<glyph unicode="." horiz-adv-x="509" d="M18 135l13 92q18 121 143 121h78q68 0 100.5 -36t22.5 -101l-13 -90q-14 -121 -141 -121h-80q-139 0 -123 135z" />
<glyph unicode="/" horiz-adv-x="1187" d="M-66 -156l1024 1569h304l-1026 -1569h-302z" />
<glyph unicode="0" horiz-adv-x="1316" d="M100 721q57 406 200 563.5t454 157.5q322 0 435.5 -169t55.5 -581q-59 -408 -200.5 -564.5t-454.5 -156.5q-311 0 -430 170t-60 580zM461.5 345q23.5 -81 144.5 -81q127 0 177.5 83t84.5 360q29 182 22 280t-39 130t-114 32q-86 0 -132 -34t-75.5 -126t-54.5 -282 q-37 -281 -13.5 -362z" />
<glyph unicode="1" horiz-adv-x="923" d="M98 1268l400 145h372l-198 -1413h-383l137 942q16 111 35 168l-334 -80z" />
<glyph unicode="2" horiz-adv-x="1191" d="M-10 0l28 207q16 104 64 153l367 326q180 166 239.5 232.5t71.5 125.5q8 43 -19.5 57.5t-103.5 14.5q-260 0 -455 -10l6 287q250 45 484 45q264 0 379.5 -75t93.5 -282q-12 -115 -68.5 -210t-193.5 -216l-394 -350q90 27 201 27h393l-45 -332h-1048z" />
<glyph unicode="3" horiz-adv-x="1159" d="M-2 12l27 273q223 -12 376 -11q246 4 279 185q14 80 -15.5 115.5t-121.5 37.5h-287l31 242h278q98 0 135 40t43 128q6 70 -20.5 94.5t-130.5 24.5q-184 0 -393 -4v268q252 37 452 37q252 0 360.5 -78t94.5 -266q-10 -135 -75.5 -233.5t-196.5 -112.5l-3 -9 q262 -37 224 -333q-29 -221 -174.5 -329t-427.5 -110q-203 0 -455 41z" />
<glyph unicode="4" horiz-adv-x="1316" d="M33 370.5q-45 73.5 2 157.5l477 885h367l-424 -809q-31 -51 16 -51h285l49 362l92 222h293l-82 -584h154l-29 -219l-154 -37h-6l-43 -297h-350l41 297h-537q-106 0 -151 73.5z" />
<glyph unicode="5" horiz-adv-x="1132" d="M-8 16l51 289q207 -25 346 -16q131 6 196.5 51t82.5 143q12 74 -30 101.5t-169 42.5l-215 28q-59 8 -91 50.5t-22 99.5l121 608h871l-54 -283h-551l-45 -208l168 -19q238 -31 327 -153.5t66 -292.5q-63 -455 -581 -482q-176 -10 -471 41z" />
<glyph unicode="6" horiz-adv-x="1218" d="M100 707q35 238 88.5 384t141.5 222t187 100.5t259 24.5q199 0 385 -43l-28 -236q-113 2 -332 2q-150 0 -209.5 -60.5t-97.5 -256.5q129 88 278 88q229 0 315.5 -105.5t51.5 -347.5q-39 -270 -168 -387t-414 -117q-317 0 -416.5 159t-40.5 573zM436.5 313.5 q20.5 -59.5 136.5 -59.5q109 0 148 52.5t59 193.5q16 109 -5 140.5t-109 31.5q-102 0 -215 -76q-35 -223 -14.5 -282.5z" />
<glyph unicode="7" horiz-adv-x="1103" d="M125 1106l25 307h872q102 0 138 -55t-5 -139l-604 -1219h-379l477 963q39 78 96 143h-620z" />
<glyph unicode="8" horiz-adv-x="1282" d="M49 367q39 344 307 364l2 8q-213 31 -174 336q27 197 143.5 281t399.5 84q303 0 410.5 -94.5t76.5 -298.5q-41 -283 -264 -310l-2 -8q256 -29 203 -391q-29 -203 -146.5 -285t-418.5 -82q-322 0 -441.5 95.5t-95.5 300.5zM418 412q-12 -96 21.5 -129t152.5 -33 q111 0 153.5 37t57.5 153q14 106 -17.5 138t-150.5 32q-113 0 -158 -36.5t-59 -161.5zM522 997q-10 -86 17.5 -113.5t136.5 -27.5q104 0 141 33t51 137q14 96 -13.5 126t-134 30t-145 -35t-53.5 -150z" />
<glyph unicode="9" horiz-adv-x="1220" d="M51 16l29 240q119 -2 371 -2q145 2 209.5 69.5t99.5 245.5q-119 -92 -289 -92q-98 0 -170 29t-108.5 76t-59 107.5t-21.5 126t7 128.5q25 188 80 289.5t174 152t327 50.5q131 0 218.5 -21.5t146.5 -71t84 -136.5t25 -207.5t-25 -297.5q-31 -221 -80 -360t-132 -222 t-192.5 -115t-275.5 -32q-232 0 -418 43zM469 954q-12 -127 9.5 -172t103.5 -45q115 0 215 72q23 145 19.5 223t-34 101.5t-114.5 23.5q-104 0 -144.5 -41t-54.5 -162z" />
<glyph unicode=":" horiz-adv-x="546" d="M6 137l12 90q19 123 144 123h78q66 0 99.5 -35.5t22.5 -101.5l-12 -90q-14 -121 -141 -121h-80q-139 0 -123 135zM88 725l12 90q19 121 144 121h80q66 0 98.5 -35t23.5 -100l-14 -90q-14 -123 -141 -123h-78q-141 0 -125 137z" />
<glyph unicode=";" horiz-adv-x="546" d="M37 121l14 100q12 72 46 99.5t106 27.5h69q74 0 101.5 -31.5t17.5 -105.5l-18 -131q-14 -100 -61.5 -213t-106.5 -191l-156 58q43 106 84 272q-57 -2 -79.5 26.5t-16.5 88.5zM119 725l12 90q18 121 143 121h78q66 0 98.5 -35t24.5 -100l-12 -90q-14 -123 -141 -123h-80 q-141 0 -123 137z" />
<glyph unicode="&#x3c;" horiz-adv-x="1040" d="M47 475l39 287l922 330l-39 -299l-588 -172l534 -189l-36 -285z" />
<glyph unicode="=" horiz-adv-x="1177" d="M59 258l41 272h961l-41 -272h-961zM121 692l39 273h960l-39 -273h-960z" />
<glyph unicode="&#x3e;" horiz-adv-x="1036" d="M39 145l41 297l582 189l-529 188l35 273l827 -330l-39 -287z" />
<glyph unicode="?" horiz-adv-x="1083" d="M158 1157v248q12 2 48 9t45 9t41 7.5t44 7.5t42 6t48 5t49 4t59.5 3t64.5 1t77 1q233 0 340.5 -82t85.5 -250q-12 -80 -55 -147.5t-101.5 -119.5t-118 -104.5t-112.5 -128t-78 -167.5h-295q10 113 61.5 215t107.5 162.5t111.5 124t67.5 102.5q18 59 -5 78.5t-99 19.5 q-145 0 -428 -4zM279 135l14 90q14 123 141 123h74q68 0 100.5 -36t24.5 -101l-15 -90q-14 -121 -139 -121h-76q-141 0 -124 135z" />
<glyph unicode="@" horiz-adv-x="1662" d="M72 473q25 147 67.5 241.5t110 140.5t138.5 61.5t179 15.5q201 0 527 -58l-90 -571q-10 -76 47 -76q92 0 123.5 77t76.5 362q-2 4 0 6q14 82 21.5 135t3.5 100t-8 73t-32 48.5t-48.5 30.5t-77.5 14t-101 7t-135 1h-700l19 238q307 16 686 20q172 2 282.5 -6t202.5 -35.5 t138 -72.5t73 -125t24.5 -184.5t-24.5 -260.5q-20 -143 -37.5 -233t-47.5 -174t-68 -130t-96 -81t-135 -48.5t-185 -13.5q-262 0 -326 189q-133 -188 -324 -189q-367 0 -284 498zM401 283q13 -33 74 -33q57 0 104.5 41t104.5 131l45 270l-111 2q-100 0 -143 -40t-69 -195 q-18 -143 -5 -176z" />
<glyph unicode="A" horiz-adv-x="1359" d="M-92 0l567 1321q39 92 137 92h353q47 0 82.5 -30.5t39.5 -75.5l201 -1307h-385l-33 330h-432l-129 -330h-401zM551 621h289l-37 360q-6 49 -6 147h-60q-18 -76 -43 -145z" />
<glyph unicode="B" horiz-adv-x="1325" d="M39 0l199 1413q193 16 548 17q282 0 392 -83q87 -66 88 -217q0 -39 -6 -83q-20 -152 -85 -224.5t-204 -85.5l-2 -10q261 -23 262 -292q0 -45 -8 -97q-31 -207 -148 -280.5t-383 -73.5q-436 0 -653 16zM451 260h170q117 0 159.5 36t59.5 146q5 34 5 60q1 53 -19 75 q-28 33 -128 33h-198zM535 854h172q96 0 134 33t52 135q3 23 3 41q0 45 -18 63q-24 26 -104 27l-196 2z" />
<glyph unicode="C" horiz-adv-x="1216" d="M96 721q57 416 207 566.5t494 150.5q256 0 444 -54l-45 -280q-215 6 -418 6q-92 0 -140 -28.5t-82 -118t-58 -271.5q-20 -130 -20 -212q0 -64 12 -99q28 -78 157 -78q271 0 443 16l14 -282q-199 -61 -473 -62q-344 0 -468 170q-85 116 -85 344q0 104 18 232z" />
<glyph unicode="D" horiz-adv-x="1413" d="M39 0l199 1413q252 20 542 21q238 0 371 -64.5t184 -228.5q29 -94 29 -228q0 -100 -16 -221q-33 -223 -81 -359t-136.5 -216t-204 -108.5t-299.5 -28.5q-291 0 -588 20zM461 270l162 -2q100 0 156.5 33t98.5 131t66 289q18 137 18 225q0 83 -16 121q-33 80 -178 80 l-184 -2z" />
<glyph unicode="E" horiz-adv-x="1187" d="M78 356l106 766q20 139 110.5 218t242.5 79q496 0 684 -24l-45 -275h-508q-55 0 -80 -20.5t-31 -73.5l-22 -168h530l-33 -262h-534l-29 -213q-2 -14 -2 -25q-1 -28 13 -44q20 -22 71 -21h506l-8 -279q-174 -20 -656 -20q-174 0 -256 98q-64 77 -64 195q0 33 5 69z" />
<glyph unicode="F" horiz-adv-x="1146" d="M35 0l155 1120q20 141 113.5 220t237.5 79q485 0 669 -26l-43 -273h-483q-61 0 -87 -19.5t-34 -74.5l-26 -197h514l-35 -260h-516l-80 -569h-385z" />
<glyph unicode="G" horiz-adv-x="1347" d="M98 721q31 221 86.5 361.5t150.5 220t215 109.5t298 30q256 0 455 -58l-46 -276q-217 6 -423 6q-164 0 -231.5 -85t-104.5 -337q-17 -125 -17 -205q0 -69 13 -106q26 -80 139 -80q53 0 98 16.5t67.5 33t63.5 48.5l60 416h366l-114 -815h-281l-14 168q-188 -197 -418 -197 q-381 0 -381 507q0 110 18 243z" />
<glyph unicode="H" horiz-adv-x="1423" d="M39 0l199 1413h385l-72 -522h405l74 522h385l-198 -1413h-386l87 608h-408l-86 -608h-385z" />
<glyph unicode="I" horiz-adv-x="630" d="M39 0l199 1413h385l-199 -1413h-385z" />
<glyph unicode="J" horiz-adv-x="780" d="M-41 25l61 243h80q129 0 142 97l151 1048h383l-158 -1143q-20 -143 -115 -220t-245 -77q-78 0 -168 14.5t-131 37.5z" />
<glyph unicode="K" horiz-adv-x="1333" d="M39 0l199 1413h387l-58 -401q-10 -78 -32 -150h90l376 551h433l-416 -586q-51 -79 -135 -114l-2 -11q59 -33 102 -135l268 -567h-417l-252 604h-88q3 -33 3 -64q0 -40 -5 -75l-66 -465h-387z" />
<glyph unicode="L" horiz-adv-x="1107" d="M80 322l151 1091h385l-147 -1014q-1 -9 -1 -17q0 -36 14 -54q18 -22 69 -21h475l-8 -291q-176 -22 -602 -22h-37q-152 0 -236 90q-67 72 -67 181q0 27 4 57z" />
<glyph unicode="M" horiz-adv-x="1904" d="M14 0l232 1284q12 68 45 98.5t98 30.5h340q59 0 95 -33.5t38 -93.5l51 -627q4 -41 4 -107q0 -44 -2 -99h25q18 80 57 202l215 643q31 115 156 115h352q68 0 103 -39q28 -31 28 -78q0 -12 -2 -26l-127 -1270h-352l117 1120h-31l-282 -796q-35 -113 -158 -113h-215 q-63 0 -99 34t-40 93l-68 782h-33l-194 -1120h-353z" />
<glyph unicode="N" horiz-adv-x="1482" d="M39 0l180 1286q18 127 141 127h160q55 0 82 -27.5t55 -91.5l254 -583q51 -117 80 -238h21q-3 38 -3 76q0 78 11 160l98 704h357l-181 -1286q-10 -66 -42.5 -96.5t-98.5 -30.5h-160q-55 0 -82.5 27.5t-56.5 91.5l-258 608q-37 80 -68 223h-18v-30q0 -105 -12 -213 l-103 -707h-356z" />
<glyph unicode="O" horiz-adv-x="1415" d="M96 721q57 416 211 568.5t488 152.5q348 0 481 -165q93 -116 93 -356q0 -103 -17 -229q-29 -215 -81 -354t-139.5 -221t-201 -114t-283.5 -32q-354 0 -481 163q-88 113 -88 349q0 107 18 238zM492 350q32 -84 163 -84q137 0 194.5 89t98.5 366q20 140 20 229 q0 77 -15 115q-32 82 -165 82q-135 0 -191 -89t-99 -366q-20 -139 -20 -228q0 -75 14 -114z" />
<glyph unicode="P" horiz-adv-x="1280" d="M39 0l199 1413q197 20 546 21q309 0 422 -106q85 -80 85 -257q0 -58 -9 -125q-37 -270 -153.5 -363.5t-391.5 -93.5q-119 0 -245 17l-70 -506h-383zM530 770h177q102 0 140 37t56 168q5 36 5 64q0 53 -18 77q-26 37 -116 37l-190 -2z" />
<glyph unicode="Q" horiz-adv-x="1415" d="M96 721q57 416 211 568.5t488 152.5q348 0 481 -165q93 -115 93 -356q0 -103 -17 -229q-29 -215 -81 -354t-139.5 -221t-201 -114t-283.5 -32q-354 0 -481 163q-88 113 -88 349q0 107 18 238zM381 -254l113 191q229 -90 626 -152l-141 -322q-356 103 -598 283zM492 350 q32 -84 163 -84q137 0 194.5 89t98.5 366q20 140 20 229q0 77 -15 115q-32 82 -165 82q-135 0 -191 -89t-99 -366q-20 -139 -20 -228q0 -75 14 -114z" />
<glyph unicode="R" horiz-adv-x="1343" d="M39 0l199 1413q197 20 548 21q289 0 419 -100q104 -81 104 -252q0 -42 -6 -89q-18 -143 -90 -227t-228 -100l-2 -15q156 -27 178 -221l62 -430h-396l-49 432q-4 61 -24.5 80.5t-73.5 19.5h-191l-75 -532h-375zM528 813h185q104 0 147 37t60 147q3 26 3 47q0 53 -21 76 q-30 33 -122 33l-205 -2z" />
<glyph unicode="S" horiz-adv-x="1210" d="M18 37l37 270q414 -10 467 -10q115 0 159 19.5t54 78.5q3 14 3 26q0 25 -12 39q-18 20 -75 46l-262 119q-162 74 -216 176q-41 76 -41 179q0 34 5 71q29 225 162 307t418 82q281 0 485 -66l-35 -250q-369 6 -469 6q-96 0 -133 -16t-47 -78q-2 -13 -2 -24q0 -26 14 -44 q20 -24 88 -53l244 -106q166 -72 218 -169q39 -71 40 -179q0 -39 -6 -82q-29 -238 -151.5 -322t-421.5 -84q-264 0 -523 64z" />
<glyph unicode="T" horiz-adv-x="1243" d="M98 1116l41 297h1192l-41 -297h-403l-158 -1116h-385l158 1116h-404z" />
<glyph unicode="U" horiz-adv-x="1413" d="M106 582l119 831h385l-121 -846q-12 -79 -12 -135q0 -70 18 -104q33 -62 158 -62q129 0 180.5 65.5t79.5 250.5l119 831h385l-123 -846q-47 -334 -188 -465t-458 -131q-318 -1 -452 143q-101 109 -100 321q0 68 10 147z" />
<glyph unicode="V" horiz-adv-x="1331" d="M117 1413h387l78 -954q4 -72 4 -135v-41h53q16 76 51 172l348 958h404l-547 -1317q-39 -96 -137 -96h-340q-49 0 -83 31.5t-40 79.5z" />
<glyph unicode="W" horiz-adv-x="2011" d="M156 1413h381l-31 -926q-2 -37 -6 -111.5t-6 -109.5h38q27 133 58 238l231 801q29 108 138 108h2h288q51 0 85 -35t36 -88l16 -805q2 -56 2 -110.5t-2 -108.5h39q18 123 48 232l225 915h381l-381 -1317q-29 -96 -137 -96h-338q-49 0 -88 33t-41 80v827q6 188 6 199h-39 q-23 -119 -43 -197l-238 -844q-29 -98 -137 -98h-344q-51 0 -89 33t-36 78z" />
<glyph unicode="X" horiz-adv-x="1345" d="M-82 0l459 723l-225 690h374l164 -573h6l338 573h396l-426 -690l249 -723h-381l-180 614l-360 -614h-414z" />
<glyph unicode="Y" horiz-adv-x="1288" d="M102 1413h385l131 -485q20 -92 21 -195h27q12 86 65 195l270 485h412l-602 -969l-61 -444h-388l66 463z" />
<glyph unicode="Z" horiz-adv-x="1206" d="M-14 0l37 279l733 856h-592l39 278h1032l-39 -278l-731 -856h629l-39 -279h-1069z" />
<glyph unicode="[" horiz-adv-x="727" d="M33 -145l217 1540q12 84 65.5 131t135.5 47h356l-31 -230h-131q-53 0 -61 -49l-193 -1362q-2 -41 35 -41h145l-32 -229h-336q-195 0 -170 193z" />
<glyph unicode="\" horiz-adv-x="1155" d="M147 1413h277l594 -1569h-279z" />
<glyph unicode="]" horiz-adv-x="727" d="M-74 -338l33 229h129q53 0 59 50l193 1362q6 41 -33 40h-145l33 230h335q84 0 131.5 -55.5t36.5 -137.5l-217 -1540q-10 -84 -63 -131t-135 -47h-357z" />
<glyph unicode="^" horiz-adv-x="985" d="M106 836l357 477h268l238 -477l-150 -76l-229 330h-17l-327 -330z" />
<glyph unicode="_" horiz-adv-x="1114" d="M-16 -227l30 227h918l-31 -227h-917z" />
<glyph unicode="`" horiz-adv-x="765" d="M166 1284l151 236l453 -306l-121 -155z" />
<glyph unicode="a" horiz-adv-x="1234" d="M61 532q23 141 64 237.5t89 151t129 83t153.5 36t189.5 7.5q106 0 266 -20.5t234 -43.5l-139 -983h-289v193q-143 -205 -406 -218q-14 -1 -27 -1q-181 0 -241 130q-40 84 -40 223q0 91 17 205zM424 314q10 -48 69 -48h5q111 6 241 178l49 347l-120 2q-109 0 -157 -46.5 t-71 -207.5q-19 -127 -19 -188q0 -23 3 -37z" />
<glyph unicode="b" horiz-adv-x="1239" d="M27 57l192 1377h373l-39 -297q-12 -135 -61 -260q173 167 376 167h2q186 0 258 -129q45 -81 45 -222q0 -85 -16 -191q-39 -262 -164 -394.5t-403 -132.5q-131 0 -304 22.5t-259 59.5zM426 238q72 -5 114 -5h13q111 4 156 60.5t71 234.5q11 83 11 132q0 32 -5 50 q-12 42 -69 42q-99 -1 -230 -101z" />
<glyph unicode="c" horiz-adv-x="1071" d="M55 524q39 283 165 403t403 120q260 0 432 -74l-51 -228l-334 3q-115 0 -162 -49.5t-66 -186.5q-8 -58 -7 -101q1 -67 19 -94q32 -45 144 -45q191 1 332 17l26 -240q-170 -74 -426 -74q-276 1 -396 131q-89 97 -89 282q0 63 10 136z" />
<glyph unicode="d" horiz-adv-x="1241" d="M61 532q20 156 60.5 259.5t101 158t127 76t154.5 21.5q174 0 327 -29q0 121 15 209l35 207h372l-202 -1434h-293l-4 172q-205 -197 -400 -197q-305 0 -305 386q0 78 12 171zM428 342q10 -55 68 -55h8q100 2 229 106l55 414h-124q-119 0 -160 -47t-64 -221 q-16 -95 -15 -153q0 -26 3 -44z" />
<glyph unicode="e" horiz-adv-x="1179" d="M55 522q35 305 175.5 415t431.5 110q289 1 395 -91q85 -73 85 -207q0 -33 -5 -69q-20 -137 -117.5 -193.5t-308.5 -72.5l-277 -21q2 -78 41 -103.5t131 -25.5q195 0 406 25l24 -232q-182 -82 -467 -82q-315 1 -429 135q-91 107 -91 303q0 51 6 109zM457 590l172 16 q76 6 109.5 27.5t39.5 83.5q1 7 1 13q1 38 -21 52t-86 13h-17q-94 -2 -133.5 -42t-64.5 -163z" />
<glyph unicode="f" horiz-adv-x="845" d="M-207 -369l57 232h115q72 0 103.5 26.5t42.5 98.5l114 796h-170l29 224l176 10l21 143q47 317 372 318q219 0 359 -27l-60 -229h-170q-70 0 -101.5 -27t-41.5 -98l-10 -80h256l-31 -234h-260l-127 -862q-45 -317 -373 -317q-82 0 -301 26z" />
<glyph unicode="g" horiz-adv-x="1243" d="M14 -356l21 209q66 -2 272 -3q319 0 395 156q16 33 39 108.5t45 114.5q-152 -229 -432 -239h-22q-181 0 -244 128q-42 83 -42 219q0 87 17 195q27 176 73 283t121 156t146.5 62.5t194.5 13.5q356 -1 596 -64l-119 -842q-20 -168 -76.5 -281.5t-146.5 -173t-188.5 -83 t-229.5 -23.5q-272 0 -420 64zM428 312q12 -47 61 -47q7 0 15 1q121 14 244 178l49 347l-127 2q-121 0 -162 -47.5t-66 -206.5q-18 -116 -18 -178q0 -32 4 -49z" />
<glyph unicode="h" horiz-adv-x="1247" d="M20 0l201 1434h373l-45 -334q-16 -117 -57 -246q213 193 407 193q147 0 219 -76q56 -59 55 -155q0 -28 -4 -60l-106 -756h-371l92 651q2 18 2 32q0 23 -6 33q-10 16 -47 15q-102 0 -256 -119l-84 -612h-373z" />
<glyph unicode="i" horiz-adv-x="595" d="M29 0l141 1018h371l-142 -1018h-370zM205 1268l14 106q8 103 121 103h147q108 0 108 -97q0 -10 -1 -20l-14 -107q-14 -102 -121 -102h-152q-104 0 -104 92q0 12 2 25z" />
<glyph unicode="j" horiz-adv-x="598" d="M-135 -227q152 145 178 321l131 924h373l-135 -938q-20 -154 -111.5 -285t-230.5 -194zM203 1268l14 106q12 103 125 103h145q106 0 106 -94q0 -11 -1 -23l-14 -107q-12 -102 -123 -102h-148q-106 0 -106 92q0 12 2 25z" />
<glyph unicode="k" horiz-adv-x="1204" d="M20 0l201 1434h373l-80 -584q-20 -123 -82 -252q139 76 240.5 186.5t130.5 233.5h381q-74 -299 -342 -483q63 -51 100 -134l188 -401h-385l-174 395q-72 -29 -131 -49l-2 -31l-45 -315h-373z" />
<glyph unicode="l" horiz-adv-x="704" d="M57 264l166 1170h371l-156 -1088q-3 -15 -3 -26q1 -26 13 -38q18 -16 76 -16h86l21 -250q-84 -43 -269 -43q-158 0 -240 78q-68 65 -68 170q0 21 3 43z" />
<glyph unicode="m" horiz-adv-x="1802" d="M20 0l144 1018h289l8 -162q193 190 387 191q215 0 256 -166q174 166 360 166q145 0 214 -77q55 -61 54 -160q0 -26 -3 -54l-107 -756h-369l90 651q1 11 1 20q0 60 -56 60q-78 0 -198 -100l-89 -631h-358l90 651q8 45 -4 62.5t-49 17.5q-78 0 -201 -94l-88 -637h-371z" />
<glyph unicode="n" horiz-adv-x="1247" d="M20 0l142 1018h293l4 -191q223 219 454 220q131 0 205 -76q58 -59 58 -157q0 -28 -5 -58l-106 -756h-373l90 639q3 22 3 38q0 27 -8 39q-13 20 -56 15q-96 -2 -242 -117l-86 -614h-373z" />
<glyph unicode="o" d="M55 522q41 291 174 408t430 117q299 0 418 -128q87 -94 87 -279q0 -67 -11 -146q-41 -287 -175 -403t-425 -116q-297 0 -419 127q-90 94 -90 279q0 65 11 141zM442 494q-11 -77 -11 -129q0 -54 12 -79q24 -50 122 -50q96 0 137 57t66 229q13 83 13 137q0 49 -11 74 q-23 51 -117 51q-102 0 -143 -56t-68 -234z" />
<glyph unicode="p" horiz-adv-x="1239" d="M-33 -379l195 1397h295v-187q203 211 415 211q293 0 293 -383q0 -79 -12 -174q-20 -160 -62 -264t-107.5 -157.5t-136.5 -73t-171 -19.5q-147 0 -291 29q0 -94 -14 -193l-31 -186h-373zM426 211h123q125 0 163 47t62 221q15 109 15 169q0 33 -5 52q-12 52 -69 52 q-104 0 -236 -127z" />
<glyph unicode="q" horiz-adv-x="1236" d="M57 518q41 283 158 406t401 123q141 0 313.5 -23t258.5 -61l-193 -1342h-370l34 260q18 139 54 250q-176 -156 -348 -156q-193 0 -271 128q-51 84 -51 236q0 80 14 179zM428 338q12 -51 78 -51q86 0 225 106l55 389q-60 5 -96 5q-19 0 -31 -1q-111 -4 -154.5 -53 t-68.5 -211q-12 -83 -12 -134q0 -31 4 -50z" />
<glyph unicode="r" horiz-adv-x="899" d="M20 0l144 1018h291l6 -162q217 190 418 191h69l-80 -342h-86q-98 0 -301 -72l-86 -633h-375z" />
<glyph unicode="s" horiz-adv-x="1099" d="M6 18l31 224q25 0 147.5 -1t186.5 -1q166 0 218 10t56 39q2 23 -18.5 34.5t-96.5 36.5l-227 78q-221 76 -221 277q0 28 4 59q18 141 124.5 207t350.5 66q295 -4 494 -46l-33 -223q-266 4 -393 4q-117 0 -152 -6t-39 -31q-2 -25 19.5 -39t85.5 -34l235 -76 q226 -74 226 -269q0 -22 -3 -46q-23 -182 -141.5 -243t-365.5 -61q-242 0 -488 41z" />
<glyph unicode="t" horiz-adv-x="872" d="M55 784l29 224l184 10l41 274h367l-39 -274h260l-33 -234h-262l-61 -438q-3 -18 -2 -31q0 -23 8 -33q14 -16 67 -16h127l19 -248q-119 -45 -314 -45q-152 0 -230 80q-62 63 -62 160q0 26 4 55l75 516h-178z" />
<glyph unicode="u" horiz-adv-x="1230" d="M51 262l105 756h374l-94 -651q-2 -13 -1 -23q1 -26 11 -40q16 -18 50 -19q92 0 233 112l88 621h369l-142 -1018h-290l-2 182q-219 -211 -428 -211q-152 0 -222 77q-55 60 -55 156q0 28 4 58z" />
<glyph unicode="v" horiz-adv-x="1206" d="M70 1018h405l33 -785h20q41 0 62.5 20.5t54.5 92.5q49 106 90 270q39 156 70 402h403q-35 -223 -118 -473q-66 -193 -158 -357q-68 -113 -142.5 -150.5t-209.5 -37.5h-273q-43 0 -72.5 26.5t-33.5 67.5z" />
<glyph unicode="w" horiz-adv-x="1859" d="M84 1020h379l22 -780h17q31 0 51 27.5t41 92.5q25 74 51 209q6 33 55 357q6 37 34 64.5t75 27.5h321q41 0 69 -25.5t30 -66.5l28 -686h17q16 0 28.5 8t22.5 32.5t13 38t16 56.5q29 88 65 246q37 178 58 397h372q-39 -256 -96 -463t-119 -334q-57 -123 -136 -172t-245 -49 h-155q-45 0 -75 28.5t-30 69.5l-18 697h-27q-6 -94 -45 -291q-31 -154 -65 -248q-51 -164 -135.5 -210t-241.5 -46h-197q-43 0 -72.5 27.5t-33.5 70.5z" />
<glyph unicode="x" horiz-adv-x="1198" d="M-80 0l377 520l-207 498h348l152 -383l266 383h377l-352 -498l225 -520h-352l-164 408l-283 -408h-387z" />
<glyph unicode="y" d="M66 1018h405l53 -752q0 -33 33 -33h66q145 316 217 785h397q-37 -242 -141.5 -523.5t-192.5 -433.5q-152 -254 -339 -369q-184 -112 -427 -112h-8l-31 211q8 2 47 14.5t49.5 15.5t42 14t45 17.5t41 18.5t43 24.5t38 28t41 34.5t36.5 42h-143q-49 0 -84 29.5t-43 76.5z " />
<glyph unicode="z" horiz-adv-x="1087" d="M-12 0l32 250h-2l574 518h-486l33 250h924l-31 -250h2l-573 -518h506l-33 -250h-946z" />
<glyph unicode="{" horiz-adv-x="727" d="M51 557l29 234q41 12 55.5 18t33.5 21.5t26.5 39t13.5 64.5l49 352q23 166 150.5 245t375.5 40l-24 -225q-80 0 -113 -20.5t-41 -86.5l-41 -283q-16 -137 -70.5 -202.5t-193.5 -85.5q225 -63 193 -287l-54 -387q-8 -55 17.5 -80t103.5 -25l-12 -229q-258 -37 -375 50 t-92 251l65 471q2 16 2.5 30.5t-1 24t-7.5 17.5t-9 13t-15.5 11.5t-17.5 9.5t-22.5 9t-25.5 10z" />
<glyph unicode="|" horiz-adv-x="550" d="M12 -346l275 1945h260l-275 -1945h-260z" />
<glyph unicode="}" horiz-adv-x="727" d="M-61 -336l24 225q80 0 111.5 19.5t40.5 83.5l57 403q18 117 73.5 180.5t198.5 100.5q-123 18 -163.5 90t-20.5 205l41 282q8 53 -17.5 73t-105.5 20l10 229q258 37 376 -51t95 -250l-51 -354q-4 -20 -4 -37t-1 -28t5 -20.5t7 -14.5t13.5 -10t16.5 -7t23.5 -8.5t27.5 -8.5 l-30 -233q-41 -16 -54.5 -22.5t-36 -21.5t-31.5 -36.5t-14 -54.5l-67 -469q-49 -356 -524 -285z" />
<glyph unicode="~" horiz-adv-x="1034" d="M86 440q-4 160 51.5 239t143.5 79q66 -2 235.5 -49t171.5 -47q53 -10 73.5 13t29.5 79l155 -15q2 -158 -49 -237.5t-143 -77.5q-70 2 -236 48t-176 48q-51 8 -71.5 -14.5t-28.5 -79.5z" />
<glyph unicode="&#xa1;" horiz-adv-x="612" d="M-12 -369l69 510l103 455h291l-25 -455l-70 -510h-368zM168 840l10 90q21 123 146 123h73q66 0 98.5 -35t24.5 -100l-14 -93q-14 -121 -141 -120h-74q-141 0 -123 135z" />
<glyph unicode="&#xa2;" horiz-adv-x="1083" d="M84 727q39 274 156.5 394t371.5 126l41 166h279l-49 -186q117 -20 190 -53l-53 -226h-330q-109 0 -153.5 -48t-63.5 -187q-20 -147 9.5 -193.5t138.5 -46.5q190 0 327 16l25 -237q-133 -61 -355 -74l-45 -178h-276l51 201q-326 86 -264 526z" />
<glyph unicode="&#xa3;" horiz-adv-x="1206" d="M6 0l35 305q197 86 207 305l4 43h-156l23 185h143l14 217q18 227 124 306t343 79q209 -1 457 -21l-35 -280q-80 2 -372 2q-76 0 -109 -24.5t-37 -92.5l-10 -186h330l-35 -185h-303l-2 -57q-6 -123 -53.5 -188.5t-141.5 -128.5q66 23 160 22h504l-39 -301h-1051z" />
<glyph unicode="&#xa4;" horiz-adv-x="1181" d="M57 393l150 135q-37 94 -22.5 207t83.5 211l-131 144l166 149l131 -147q98 51 207 51q125 0 217 -58l152 138l147 -164l-156 -141q37 -98 23 -211t-80 -207l131 -144l-164 -149l-131 145q-106 -53 -215 -53q-119 0 -217 59l-143 -129zM393 723q-14 -96 40 -155.5 t145 -59.5q96 0 160.5 58.5t76.5 156.5q14 98 -38 156.5t-144 58.5q-100 0 -164 -58.5t-76 -156.5z" />
<glyph unicode="&#xa5;" horiz-adv-x="1396" d="M145 256l25 209h1006l-29 -209h-311l-35 -256h-387l37 256h-306zM156 1413h385l131 -481q18 -80 18 -195h27q14 94 67 195l269 481h409l-420 -676h170l-28 -211h-1002l25 211h182z" />
<glyph unicode="&#xa6;" horiz-adv-x="555" d="M14 -346l115 819h260l-115 -819h-260zM172 780l117 819h260l-117 -819h-260z" />
<glyph unicode="&#xa7;" horiz-adv-x="1107" d="M-20 -360l40 256q276 -6 299 -7q113 0 161 13.5t55 62.5q12 55 -60 98l-219 130q-160 86 -184.5 211t67.5 303l258 -11q-16 -117 2.5 -160.5t106.5 -101.5l268 -166q43 -27 61.5 -42t53.5 -57t45 -103.5t-2 -143.5q-27 -182 -140.5 -245.5t-342.5 -63.5q-268 0 -469 27z M156 1130q10 78 40.5 134.5t72.5 90.5t105.5 54.5t125 26.5t143.5 6q276 -6 465 -25l-41 -258q-72 4 -330 4q-100 0 -140 -14t-44 -57q-8 -59 78 -111l203 -121q160 -86 184 -211t-68 -305l-260 12q18 115 0 160.5t-108 104.5l-267 174q-57 41 -91 75.5t-57.5 103 t-10.5 156.5z" />
<glyph unicode="&#xa8;" horiz-adv-x="880" d="M223 1255l23 140q8 67 76 67h133q72 0 59 -63l-20 -146q-8 -63 -70 -63h-141q-70 0 -60 65zM598 1255l20 142q13 65 74 65h137q68 0 60 -63l-23 -144q-6 -66 -69 -65h-140q-72 0 -59 65z" />
<glyph unicode="&#xa9;" horiz-adv-x="1634" d="M90 721q39 328 257 524.5t548 196.5q342 0 529.5 -206t148.5 -544q-35 -326 -251 -523.5t-552 -197.5q-340 0 -529.5 203t-150.5 547zM270 692q-23 -254 105.5 -403.5t386.5 -149.5q260 0 433 156t200 426q25 252 -104.5 402.5t-387.5 150.5q-266 0 -436 -156.5 t-197 -425.5zM446 723q29 225 129.5 311t325.5 86q135 0 266 -33l-28 -194q-45 0 -125 1t-129 1q-84 0 -115 -35t-45 -149q-14 -113 4.5 -149t87.5 -38q123 -6 268 6l17 -194q-125 -39 -279 -39q-238 0 -322.5 94t-54.5 332z" />
<glyph unicode="&#xaa;" horiz-adv-x="917" d="M119 924q12 94 40.5 157.5t62.5 99.5t91.5 54t106.5 22.5t131 4.5q217 4 346 -43l-92 -650h-209l-4 121q-90 -129 -260 -137q-145 -8 -192.5 85t-20.5 286zM387 785.5q6 -29.5 45 -27.5q70 4 150 108l32 219h-77q-66 0 -95.5 -28.5t-44.5 -132.5q-16 -109 -10 -138.5z " />
<glyph unicode="&#xab;" horiz-adv-x="1095" d="M45 475l6 80l344 403l193 -127l-211 -317l149 -330l-192 -127zM500 475l6 80l344 403l192 -127l-211 -317l150 -330l-193 -127z" />
<glyph unicode="&#xac;" horiz-adv-x="1173" d="M82 492l39 272h964l-69 -483h-293l31 211h-672z" />
<glyph unicode="&#xad;" horiz-adv-x="815" d="M78 412l33 225h602l-33 -225h-602z" />
<glyph unicode="&#xae;" horiz-adv-x="1040" d="M121 999q29 201 164 321t344 120q193 0 308.5 -129t88.5 -338q-27 -203 -162 -324t-344 -121q-197 0 -311.5 132.5t-87.5 338.5zM221 975q-18 -162 70 -257t235 -95q172 0 277 101t123 275q18 158 -69 253.5t-234 95.5q-172 0 -276.5 -100.5t-125.5 -272.5zM342 770 l61 449q66 6 199 6q115 0 167 -32t40 -112q-8 -86 -104 -100l-3 -4q53 -6 64 -76l18 -131h-157l-13 133q-2 29 -32 29h-66l-22 -162h-152zM530 1026h60q23 2 34 4t20 12.5t11 28.5q4 27 -4 36t-39 9h-69z" />
<glyph unicode="&#xaf;" horiz-adv-x="819" d="M190 1217l33 225h635l-31 -225h-637z" />
<glyph unicode="&#xb0;" horiz-adv-x="694" d="M137 1171q14 117 94 189t207 72t208 -81t67 -208q-16 -119 -98.5 -189.5t-209 -70.5t-204.5 82t-64 206zM317 1163q-6 -53 22 -83.5t79 -30.5q49 0 79.5 28.5t35 77.5t-22.5 80t-80 31q-49 0 -78.5 -28t-34.5 -75z" />
<glyph unicode="&#xb1;" horiz-adv-x="1150" d="M27 63l41 275h946l-39 -275h-948zM111 643l39 275h335l33 231h275l-35 -231h340l-41 -275h-338l-33 -229h-270l33 229h-338z" />
<glyph unicode="&#xb2;" horiz-adv-x="866" d="M106 737l23 154q12 82 43 113l199 155q166 127 190 168q14 23 0 35t-49 12l-289 -2v203q147 25 307 24q178 0 268.5 -50t69.5 -191q-16 -109 -157 -215l-236 -176q55 18 119 14l240 -4l-33 -240h-695z" />
<glyph unicode="&#xb3;" horiz-adv-x="821" d="M106 745l17 201q219 -4 270 -2q121 2 133 82q4 33 -9 47t-56 14h-197l25 175h190q45 0 62.5 17t19.5 56q2 25 -12 35t-62 10h-260l-4 201q174 23 305 23q182 0 251 -49.5t57 -163.5q-8 -78 -50.5 -136.5t-130.5 -66.5l-2 -6q180 -23 154 -224q-16 -113 -100 -175 t-279 -64q-145 0 -322 26z" />
<glyph unicode="&#xb4;" horiz-adv-x="765" d="M190 1214l480 314l125 -262l-519 -207z" />
<glyph unicode="&#xb6;" horiz-adv-x="1214" d="M90 936q41 276 198.5 389t497.5 113q221 0 379 -35l-196 -1403h-230l170 1214l-92 3l-231 -1647h-230l119 842q-453 53 -385 524z" />
<glyph unicode="&#xb7;" horiz-adv-x="526" d="M76 492l12 90q14 120 143 120h78q66 0 98.5 -34.5t24.5 -100.5l-12 -90q-14 -123 -141 -123h-80q-141 0 -123 138z" />
<glyph unicode="&#xb8;" horiz-adv-x="524" d="M-94 -494l43 146q180 0 203 106q2 12 0 18.5t-15.5 10.5t-38 5t-69.5 1l32 135q106 10 183.5 8t115 -39.5t23.5 -115.5q-27 -158 -159 -228.5t-318 -46.5z" />
<glyph unicode="&#xb9;" horiz-adv-x="638" d="M150 1503l235 82h283l-119 -848h-283l74 516q10 70 27 113l-207 -43z" />
<glyph unicode="&#xba;" horiz-adv-x="890" d="M111 920q27 193 119.5 270.5t285.5 77.5q211 0 293 -87t53 -290q-27 -193 -115 -267.5t-288 -74.5q-209 0 -292 86t-56 285zM389 891q-12 -84 2.5 -120t71.5 -36t81.5 38t39.5 147q14 98 -0.5 128.5t-69.5 30.5q-59 0 -85 -37.5t-40 -150.5z" />
<glyph unicode="&#xbb;" horiz-adv-x="1099" d="M29 184l213 318l-152 329l195 127l286 -417l-4 -80l-346 -402zM483 184l213 318l-151 329l192 127l289 -417l-6 -80l-344 -402z" />
<glyph unicode="&#xbc;" horiz-adv-x="1908" d="M150 1331l225 82h284l-120 -848h-283l72 518q12 74 26 113l-196 -43zM244 0l1018 1413h239l-1016 -1413h-241zM996.5 217q-25.5 51 7.5 107l284 524h258l-241 -467q-18 -33 14 -33h147l27 193l63 139h211l-47 -332h99l-23 -160l-102 -22l-23 -166h-252l23 166h-352 q-68 0 -93.5 51z" />
<glyph unicode="&#xbd;" horiz-adv-x="1900" d="M150 1331l223 82h286l-120 -848h-285l74 518q8 66 24 113l-194 -43zM238 0l1015 1413h240l-1016 -1413h-239zM1044 0l23 152q10 80 45 112l199 156q158 119 188 168q14 25 2 37t-47 12h-293v201q135 25 307 24q190 0 279.5 -50t64.5 -196q-16 -109 -155 -213l-242 -174 q51 12 119 13l248 -6l-33 -236h-705z" />
<glyph unicode="&#xbe;" horiz-adv-x="2035" d="M82 571l14 201q68 -2 271 -2q72 0 101.5 21.5t35.5 62.5q4 31 -9.5 45t-58.5 14l-196 2l22 172h193q45 0 63.5 18.5t20.5 57.5q4 25 -10.5 35t-59.5 10q-158 0 -268 2l-4 197q152 23 307 23q190 0 260 -47.5t53 -165.5q-24 -183 -188 -201l-6 -6q186 -23 161 -226 q-14 -117 -97 -177t-273 -60q-156 0 -332 24zM408 0l1013 1413h240l-1014 -1413h-239zM1130.5 219q-26.5 51 6.5 109l284 522h258l-243 -467q-14 -31 16 -31h150l24 189l64 141h208l-47 -330h99l-21 -159l-102 -25l-25 -166h-250l23 166h-352q-66 0 -92.5 51z" />
<glyph unicode="&#xbf;" horiz-adv-x="1071" d="M-47 -74q10 80 54 146.5t103.5 117t120 102.5t112.5 129t75 171h293q-10 -123 -61.5 -227.5t-107 -162t-111.5 -117.5t-71 -97q-18 -47 6.5 -72t102.5 -25q160 0 430 5l-4 -250q-12 -2 -57 -10.5t-56.5 -10.5t-50.5 -8t-56.5 -8t-56 -6t-69.5 -5t-76 -2.5t-94 -1.5 q-236 0 -342.5 85t-83.5 247zM428 840l12 90q19 123 142 123h75q66 0 98.5 -35t24.5 -100l-14 -93q-6 -63 -39 -91.5t-100 -28.5h-76q-139 0 -123 135z" />
<glyph unicode="&#xc0;" horiz-adv-x="1359" d="M-92 0l567 1321q39 92 137 92h353q47 0 82.5 -30.5t39.5 -75.5l201 -1307h-385l-33 330h-432l-129 -330h-401zM397 1702l152 235l452 -305l-120 -155zM551 621h289l-37 360q-6 49 -6 147h-60q-18 -76 -43 -145z" />
<glyph unicode="&#xc1;" horiz-adv-x="1359" d="M-92 0l567 1321q39 92 137 92h353q47 0 82.5 -30.5t39.5 -75.5l201 -1307h-385l-33 330h-432l-129 -330h-401zM551 621h289l-37 360q-6 49 -6 147h-60q-18 -76 -43 -145zM631 1632l479 316l127 -265l-518 -206z" />
<glyph unicode="&#xc2;" horiz-adv-x="1359" d="M-92 0l567 1321q39 92 137 92h353q47 0 82.5 -30.5t39.5 -75.5l201 -1307h-385l-33 330h-432l-129 -330h-401zM399 1608l308 276h251l265 -285l-105 -124l-284 196h-17l-330 -194zM551 621h289l-37 360q-6 49 -6 147h-60q-18 -76 -43 -145z" />
<glyph unicode="&#xc3;" horiz-adv-x="1359" d="M-92 0l567 1321q39 92 137 92h353q47 0 82.5 -30.5t39.5 -75.5l201 -1307h-385l-33 330h-432l-129 -330h-401zM436 1550q-2 158 51.5 237t145.5 77q63 -2 181 -46t138 -49q51 -10 73 12.5t30 80.5l153 -15q4 -158 -49 -236.5t-143 -76.5q-68 2 -185.5 47t-140.5 49 q-51 8 -71.5 -14.5t-28.5 -79.5zM551 621h289l-37 360q-6 49 -6 147h-60q-18 -76 -43 -145z" />
<glyph unicode="&#xc4;" horiz-adv-x="1359" d="M-92 0l567 1321q39 92 137 92h353q47 0 82.5 -30.5t39.5 -75.5l201 -1307h-385l-33 330h-432l-129 -330h-401zM498 1626l20 141q8 68 78 68h131q72 0 59 -66l-20 -143q-9 -63 -70 -63h-141q-70 0 -57 63zM551 621h289l-37 360q-6 49 -6 147h-60q-18 -76 -43 -145z M870 1626l23 141q8 68 72 68h137q72 0 59 -66l-20 -141q-9 -65 -70 -65h-141q-68 0 -60 63z" />
<glyph unicode="&#xc5;" horiz-adv-x="1359" d="M-92 0l567 1321q39 92 137 92h353q47 0 82.5 -30.5t39.5 -75.5l201 -1307h-385l-33 330h-432l-129 -330h-401zM551 621h289l-37 360q-6 49 -6 147h-60q-18 -76 -43 -145zM582 1720q12 96 82.5 162t179.5 66q111 0 183.5 -75t57.5 -181q-12 -94 -82.5 -160t-181.5 -66 q-113 0 -183.5 74t-55.5 180zM737 1712q-4 -49 20.5 -76.5t67.5 -27.5q45 0 74 28.5t31 75.5q2 43 -22.5 68.5t-67.5 25.5q-41 0 -70 -26.5t-33 -67.5z" />
<glyph unicode="&#xc6;" horiz-adv-x="1935" d="M-113 0l695 1122q70 115 145.5 175.5t204.5 90t340 29.5q440 0 698 -20l-47 -273h-483q-55 0 -80 -20.5t-33 -73.5l-27 -178h510l-30 -248h-514l-33 -223q-4 -49 13.5 -70.5t68.5 -21.5h487l-6 -275q-188 -20 -649 -20q-147 0 -223 89t-56 234l4 31h-376l-209 -348h-400z M668 637h245l60 418q10 74 51 131h-20q-8 -12 -74 -113z" />
<glyph unicode="&#xc7;" horiz-adv-x="1216" d="M96 721q57 416 207 566.5t494 150.5q256 0 444 -54l-45 -280q-215 6 -418 6q-92 0 -140 -28.5t-82 -118t-58 -271.5q-35 -233 -7.5 -311t156.5 -78q271 0 443 16l14 -282q-199 -61 -473 -62q-344 0 -468 170t-67 576zM266 -547l41 146q178 -4 203 104q2 12 0 18.5 t-15.5 10.5t-38 5t-69.5 1l35 135q104 12 181 10t115 -41t23 -116q-27 -156 -158.5 -226.5t-316.5 -46.5z" />
<glyph unicode="&#xc8;" horiz-adv-x="1187" d="M78 356l106 766q20 139 110.5 218t242.5 79q496 0 684 -24l-45 -275h-508q-55 0 -80 -20.5t-31 -73.5l-22 -168h530l-33 -262h-534l-29 -213q-8 -47 11.5 -68.5t70.5 -21.5h506l-8 -279q-174 -20 -656 -20q-174 0 -256 98t-59 264zM369 1712l151 236l451 -306l-119 -153z " />
<glyph unicode="&#xc9;" horiz-adv-x="1187" d="M78 356l106 766q20 139 110.5 218t242.5 79q496 0 684 -24l-45 -275h-508q-55 0 -80 -20.5t-31 -73.5l-22 -168h530l-33 -262h-534l-29 -213q-8 -47 11.5 -68.5t70.5 -21.5h506l-8 -279q-174 -20 -656 -20q-174 0 -256 98t-59 264zM602 1642l479 316l127 -264l-518 -205z " />
<glyph unicode="&#xca;" horiz-adv-x="1187" d="M78 356l106 766q20 139 110.5 218t242.5 79q496 0 684 -24l-45 -275h-508q-55 0 -80 -20.5t-31 -73.5l-22 -168h530l-33 -262h-534l-29 -213q-8 -47 11.5 -68.5t70.5 -21.5h506l-8 -279q-174 -20 -656 -20q-174 0 -256 98t-59 264zM371 1620l305 274h252l266 -284 l-104 -125l-287 196h-17l-327 -194z" />
<glyph unicode="&#xcb;" horiz-adv-x="1187" d="M78 356l106 766q20 139 110.5 218t242.5 79q496 0 684 -24l-45 -275h-508q-55 0 -80 -20.5t-31 -73.5l-22 -168h530l-33 -262h-534l-29 -213q-8 -47 11.5 -68.5t70.5 -21.5h506l-8 -279q-174 -20 -656 -20q-174 0 -256 98t-59 264zM467 1638l22 140q8 68 76 67h133 q72 0 60 -65l-23 -144q-6 -63 -67 -63h-142q-68 0 -59 65zM842 1638l20 142q12 66 74 65h135q70 0 62 -65l-23 -142q-9 -65 -70 -65h-139q-72 0 -59 65z" />
<glyph unicode="&#xcc;" horiz-adv-x="630" d="M39 0l199 1413h385l-199 -1413h-385zM39 1702l151 235l453 -305l-121 -155z" />
<glyph unicode="&#xcd;" horiz-adv-x="630" d="M39 0l199 1413h385l-199 -1413h-385zM272 1632l480 316l127 -265l-519 -206z" />
<glyph unicode="&#xce;" horiz-adv-x="630" d="M39 0l199 1413h385l-199 -1413h-385zM41 1608l305 276h252l266 -285l-104 -124l-287 196h-16l-328 -194z" />
<glyph unicode="&#xcf;" horiz-adv-x="630" d="M39 0l199 1413h385l-199 -1413h-385zM137 1626l23 141q8 68 76 68h133q72 0 59 -66l-20 -143q-8 -63 -70 -63h-141q-68 0 -60 63zM512 1626l20 141q6 37 22.5 52.5t51.5 15.5h137q68 0 60 -66l-23 -141q-6 -66 -69 -65h-140q-68 0 -59 63z" />
<glyph unicode="&#xd0;" horiz-adv-x="1413" d="M27 653l24 183h105l82 577q252 20 542 21q238 0 371 -64.5t184 -228.5t13 -449q-33 -223 -81 -359t-136.5 -216t-204 -108.5t-299.5 -28.5q-291 0 -588 20l92 653h-104zM461 270l162 -2q100 0 156.5 33t98.5 131t66 289q35 266 2 346t-178 80l-184 -2l-43 -309h211 l-27 -183h-211z" />
<glyph unicode="&#xd1;" horiz-adv-x="1482" d="M39 0l180 1286q18 127 141 127h160q55 0 82 -27.5t55 -91.5l254 -583q51 -117 80 -238h21q-8 113 8 236l98 704h357l-181 -1286q-10 -66 -42.5 -96.5t-98.5 -30.5h-160q-55 0 -82.5 27.5t-56.5 91.5l-258 608q-37 80 -68 223h-18q2 -119 -12 -243l-103 -707h-356z M498 1550q-2 158 52 237t144 77q63 -2 181 -46t139 -49q51 -10 73.5 13.5t28.5 79.5l154 -15q4 -158 -48.5 -236.5t-144.5 -76.5q-68 2 -185.5 47t-139.5 49q-51 8 -72 -14.5t-29 -79.5z" />
<glyph unicode="&#xd2;" horiz-adv-x="1415" d="M96 721q57 416 211 568.5t488 152.5q348 0 481 -165t76 -585q-29 -215 -81 -354t-139.5 -221t-201 -114t-283.5 -32q-354 0 -481 163t-70 587zM432 1702l152 235l452 -305l-121 -155zM492.5 350q31.5 -84 162.5 -84q137 0 194.5 89t98.5 366q37 262 5 344t-165 82 q-135 0 -191 -89t-99 -366q-37 -258 -5.5 -342z" />
<glyph unicode="&#xd3;" horiz-adv-x="1415" d="M96 721q57 416 211 568.5t488 152.5q348 0 481 -165t76 -585q-29 -215 -81 -354t-139.5 -221t-201 -114t-283.5 -32q-354 0 -481 163t-70 587zM492.5 350q31.5 -84 162.5 -84q137 0 194.5 89t98.5 366q37 262 5 344t-165 82q-135 0 -191 -89t-99 -366q-37 -258 -5.5 -342 zM666 1632l479 316l127 -265l-518 -206z" />
<glyph unicode="&#xd4;" horiz-adv-x="1415" d="M96 721q57 416 211 568.5t488 152.5q348 0 481 -165t76 -585q-29 -215 -81 -354t-139.5 -221t-201 -114t-283.5 -32q-354 0 -481 163t-70 587zM434 1608l305 276h252l266 -285l-104 -124l-287 196h-16l-328 -194zM492.5 350q31.5 -84 162.5 -84q137 0 194.5 89t98.5 366 q37 262 5 344t-165 82q-135 0 -191 -89t-99 -366q-37 -258 -5.5 -342z" />
<glyph unicode="&#xd5;" horiz-adv-x="1415" d="M96 721q57 416 211 568.5t488 152.5q348 0 481 -165t76 -585q-29 -215 -81 -354t-139.5 -221t-201 -114t-283.5 -32q-354 0 -481 163t-70 587zM469 1550q-2 158 52 237t147 77q63 -2 179 -46t138 -49q53 -10 74.5 13.5t27.5 79.5l154 -15q6 -158 -47 -236.5t-143 -76.5 q-68 2 -185.5 47t-142.5 49q-51 8 -71.5 -14.5t-28.5 -79.5zM492.5 350q31.5 -84 162.5 -84q137 0 194.5 89t98.5 366q37 262 5 344t-165 82q-135 0 -191 -89t-99 -366q-37 -258 -5.5 -342z" />
<glyph unicode="&#xd6;" horiz-adv-x="1415" d="M96 721q57 416 211 568.5t488 152.5q348 0 481 -165t76 -585q-29 -215 -81 -354t-139.5 -221t-201 -114t-283.5 -32q-354 0 -481 163t-70 587zM492.5 350q31.5 -84 162.5 -84q137 0 194.5 89t98.5 366q37 262 5 344t-165 82q-135 0 -191 -89t-99 -366q-37 -258 -5.5 -342 zM530 1626l23 141q8 68 76 68h133q72 0 59 -66l-20 -143q-8 -63 -70 -63h-141q-68 0 -60 63zM905 1626l21 141q6 37 22 52.5t51 15.5h138q68 0 59 -66l-22 -141q-6 -66 -70 -65h-139q-72 0 -60 63z" />
<glyph unicode="&#xd7;" horiz-adv-x="1075" d="M35 375l293 229l-224 225l197 203l254 -250l342 269l141 -224l-295 -231l232 -229l-199 -217l-262 266l-338 -266z" />
<glyph unicode="&#xd8;" horiz-adv-x="1415" d="M78 -82l112 186q-156 166 -94 617q57 416 211 568.5t488 152.5q111 0 190 -15l133 226l268 -137l-131 -218q156 -168 97 -606q-29 -215 -81 -354t-139.5 -221t-201 -114t-283.5 -32q-98 0 -178 13l-125 -203zM492.5 350q31.5 -84 162.5 -84q137 0 194.5 89.5t98.5 365.5 q37 262 5.5 344t-165.5 82q-135 0 -191 -89t-99 -366q-37 -258 -5.5 -342z" />
<glyph unicode="&#xd9;" horiz-adv-x="1413" d="M106 582l119 831h385l-121 -846q-27 -176 6 -238.5t158 -62.5q129 0 180.5 65.5t79.5 250.5l119 831h385l-123 -846q-47 -334 -188 -465t-458.5 -131t-451 143.5t-90.5 467.5zM426 1702l149 235l453 -305l-119 -155z" />
<glyph unicode="&#xda;" horiz-adv-x="1413" d="M106 582l119 831h385l-121 -846q-27 -176 6 -238.5t158 -62.5q129 0 180.5 65.5t79.5 250.5l119 831h385l-123 -846q-47 -334 -188 -465t-458.5 -131t-451 143.5t-90.5 467.5zM659 1632l480 316l127 -265l-518 -206z" />
<glyph unicode="&#xdb;" horiz-adv-x="1413" d="M106 582l119 831h385l-121 -846q-27 -176 6 -238.5t158 -62.5q129 0 180.5 65.5t79.5 250.5l119 831h385l-123 -846q-47 -334 -188 -465t-458.5 -131t-451 143.5t-90.5 467.5zM428 1608l305 276h252l266 -285l-104 -124l-287 196h-16l-328 -194z" />
<glyph unicode="&#xdc;" horiz-adv-x="1413" d="M106 582l119 831h385l-121 -846q-27 -176 6 -238.5t158 -62.5q129 0 180.5 65.5t79.5 250.5l119 831h385l-123 -846q-47 -334 -188 -465t-458.5 -131t-451 143.5t-90.5 467.5zM524 1626l23 141q8 68 76 68h133q72 0 59 -66l-22 -143q-6 -63 -68 -63h-141q-68 0 -60 63z M899 1626l21 141q10 68 73 68h135q70 0 62 -66l-23 -141q-8 -66 -69 -65h-140q-72 0 -59 63z" />
<glyph unicode="&#xdd;" horiz-adv-x="1288" d="M102 1413h385l131 -485q20 -92 21 -195h27q12 86 65 195l270 485h412l-602 -969l-61 -444h-388l66 463zM590 1632l479 316l125 -265l-518 -206z" />
<glyph unicode="&#xde;" horiz-adv-x="1277" d="M39 0l199 1413h385l-33 -233h155q305 0 421 -105.5t79 -384.5q-37 -266 -153.5 -361.5t-384.5 -95.5q-123 0 -248 17l-35 -250h-385zM496 514h174q98 0 136 38t56 167q16 109 -8.5 144.5t-114.5 35.5h-188z" />
<glyph unicode="&#xdf;" horiz-adv-x="1468" d="M-199 -369l58 232h114q70 0 99.5 25.5t42.5 99.5l112 796h-174l29 224l178 10l19 137q29 205 153.5 279.5t405.5 74.5q315 0 420.5 -77.5t74.5 -262.5q-20 -133 -135 -241q-16 -14 -48 -43t-46 -43.5t-28.5 -35t-18.5 -38.5q-4 -29 15.5 -52.5t76.5 -72.5l117 -96 q84 -78 114.5 -145.5t16.5 -153.5q-23 -147 -120 -209t-319 -62q-121 0 -346 23l33 236l234 -3q76 0 111.5 14.5t37.5 57.5q2 29 -19.5 56.5t-97.5 95.5l-90 63q-70 61 -99.5 117.5t-19.5 132.5q6 43 31 83t50.5 65.5t93.5 91.5q66 61 88 93t26 68q6 49 -19.5 65.5 t-111.5 16.5q-119 0 -164 -31.5t-59 -123.5l-164 -1176q-23 -152 -112 -234.5t-267 -82.5q-76 0 -293 26z" />
<glyph unicode="&#xe0;" horiz-adv-x="1234" d="M61 532q23 141 64 237.5t89 151t129 83t153.5 36t189.5 7.5q106 0 266 -20.5t234 -43.5l-139 -983h-289v193q-143 -205 -406 -218q-203 -10 -268.5 129.5t-22.5 427.5zM301 1321l152 238l452 -308l-121 -153zM423.5 313.5q10.5 -49.5 74.5 -47.5q111 6 241 178l49 347 l-120 2q-109 0 -157 -46.5t-71 -207.5q-27 -176 -16.5 -225.5z" />
<glyph unicode="&#xe1;" horiz-adv-x="1234" d="M61 532q23 141 64 237.5t89 151t129 83t153.5 36t189.5 7.5q106 0 266 -20.5t234 -43.5l-139 -983h-289v193q-143 -205 -406 -218q-203 -10 -268.5 129.5t-22.5 427.5zM423.5 313.5q10.5 -49.5 74.5 -47.5q111 6 241 178l49 347l-120 2q-109 0 -157 -46.5t-71 -207.5 q-27 -176 -16.5 -225.5zM537 1253l479 314l125 -262l-518 -207z" />
<glyph unicode="&#xe2;" horiz-adv-x="1234" d="M61 532q23 141 64 237.5t89 151t129 83t153.5 36t189.5 7.5q106 0 266 -20.5t234 -43.5l-139 -983h-289v193q-143 -205 -406 -218q-203 -10 -268.5 129.5t-22.5 427.5zM305 1229l305 276h252l264 -286l-102 -125l-287 196h-16l-328 -194zM423.5 313.5 q10.5 -49.5 74.5 -47.5q111 6 241 178l49 347l-120 2q-109 0 -157 -46.5t-71 -207.5q-27 -176 -16.5 -225.5z" />
<glyph unicode="&#xe3;" horiz-adv-x="1234" d="M61 532q23 141 64 237.5t89 151t129 83t153.5 36t189.5 7.5q106 0 266 -20.5t234 -43.5l-139 -983h-289v193q-143 -205 -406 -218q-203 -10 -268.5 129.5t-22.5 427.5zM340 1171q-2 156 52 236t145 78q63 -2 180 -46t139 -48q51 -10 73.5 12t28.5 78l154 -15 q4 -158 -48 -235.5t-144 -75.5q-68 2 -187 46t-139 48q-51 8 -71.5 -14.5t-28.5 -77.5zM423.5 313.5q10.5 -49.5 74.5 -47.5q111 6 241 178l49 347l-120 2q-109 0 -157 -46.5t-71 -207.5q-27 -176 -16.5 -225.5z" />
<glyph unicode="&#xe4;" horiz-adv-x="1234" d="M61 532q23 141 64 237.5t89 151t129 83t153.5 36t189.5 7.5q106 0 266 -20.5t234 -43.5l-139 -983h-289v193q-143 -205 -406 -218q-203 -10 -268.5 129.5t-22.5 427.5zM401 1247l21 139q8 68 78 68h131q72 0 59 -63l-20 -146q-9 -63 -70 -63h-139q-72 0 -60 65z M423.5 313.5q10.5 -49.5 74.5 -47.5q111 6 241 178l49 347l-120 2q-109 0 -157 -46.5t-71 -207.5q-27 -176 -16.5 -225.5zM774 1247l23 142q8 66 71 65h138q72 0 59 -63l-21 -144q-8 -65 -69 -65h-141q-70 0 -60 65z" />
<glyph unicode="&#xe5;" horiz-adv-x="1234" d="M61 532q23 141 64 237.5t89 151t129 83t153.5 36t189.5 7.5q106 0 266 -20.5t234 -43.5l-139 -983h-289v193q-143 -205 -406 -218q-203 -10 -268.5 129.5t-22.5 427.5zM423.5 313.5q10.5 -49.5 74.5 -47.5q111 6 241 178l49 347l-120 2q-109 0 -157 -46.5t-71 -207.5 q-27 -176 -16.5 -225.5zM485 1341q12 96 83 161t180 65q111 0 183.5 -74t57.5 -180q-10 -96 -81.5 -162t-180.5 -66q-115 0 -185.5 75t-56.5 181zM641 1331q-4 -47 20.5 -75.5t67.5 -28.5q45 0 73.5 29.5t33.5 76.5q2 41 -24 67.5t-69 26.5q-41 0 -69.5 -27.5t-32.5 -68.5z " />
<glyph unicode="&#xe6;" horiz-adv-x="1853" d="M63 532q16 119 42 205t66 141.5t80 89t103.5 51t118.5 23t141 5.5q242 0 441 -35q113 35 284 35q287 0 392.5 -91.5t78.5 -275.5q-20 -137 -116.5 -193.5t-304.5 -72.5l-281 -21q2 -78 42 -103.5t136 -25.5q192 0 395 25l25 -232q-180 -82 -459 -82q-393 0 -483 232 q-139 -215 -412 -232q-201 -10 -265 129.5t-24 427.5zM427 313.5q10 -49.5 73 -47.5q106 6 233 172q0 12 1 25.5t3 31t2 27.5q18 160 66 269l-139 2q-113 0 -156 -45.5t-66 -208.5q-27 -176 -17 -225.5zM1130 588l175 18q76 6 108.5 27.5t38.5 83.5q4 49 -19.5 64.5 t-99.5 13.5q-100 -2 -140 -42t-63 -165z" />
<glyph unicode="&#xe7;" horiz-adv-x="1071" d="M55 524q39 283 165 403t403 120q260 0 432 -74l-51 -228l-334 3q-115 0 -162 -49.5t-66 -186.5q-20 -150 11.5 -195t144.5 -45q191 1 332 17l26 -240q-170 -74 -426 -74q-276 0 -396 130.5t-79 418.5zM176 -518l43 145q180 0 201 107q0 6 1 12t-4 10t-11.5 6t-21.5 3.5 t-34.5 2.5t-50.5 1l33 135q176 20 258 -7.5t63 -140.5q-27 -156 -160 -227.5t-317 -46.5z" />
<glyph unicode="&#xe8;" horiz-adv-x="1179" d="M55 522q35 305 175.5 415t431.5 110q289 0 395 -91.5t80 -275.5q-20 -137 -117.5 -193.5t-308.5 -72.5l-277 -21q2 -78 41 -103.5t131 -25.5q195 0 406 25l24 -232q-182 -82 -467 -82q-315 0 -429.5 134.5t-84.5 412.5zM283 1321l151 238l453 -308l-121 -153zM457 590 l172 16q76 6 109.5 27.5t39.5 83.5q4 49 -20.5 64.5t-102.5 13.5q-94 -2 -133.5 -42t-64.5 -163z" />
<glyph unicode="&#xe9;" horiz-adv-x="1179" d="M55 522q35 305 175.5 415t431.5 110q289 0 395 -91.5t80 -275.5q-20 -137 -117.5 -193.5t-308.5 -72.5l-277 -21q2 -78 41 -103.5t131 -25.5q195 0 406 25l24 -232q-182 -82 -467 -82q-315 0 -429.5 134.5t-84.5 412.5zM457 590l172 16q76 6 109.5 27.5t39.5 83.5 q4 49 -20.5 64.5t-102.5 13.5q-94 -2 -133.5 -42t-64.5 -163zM516 1253l479 314l127 -262l-518 -207z" />
<glyph unicode="&#xea;" horiz-adv-x="1179" d="M55 522q35 305 175.5 415t431.5 110q289 0 395 -91.5t80 -275.5q-20 -137 -117.5 -193.5t-308.5 -72.5l-277 -21q2 -78 41 -103.5t131 -25.5q195 0 406 25l24 -232q-182 -82 -467 -82q-315 0 -429.5 134.5t-84.5 412.5zM285 1229l305 276h252l266 -286l-104 -125 l-287 196h-17l-327 -194zM457 590l172 16q76 6 109.5 27.5t39.5 83.5q4 49 -20.5 64.5t-102.5 13.5q-94 -2 -133.5 -42t-64.5 -163z" />
<glyph unicode="&#xeb;" horiz-adv-x="1179" d="M55 522q35 305 175.5 415t431.5 110q289 0 395 -91.5t80 -275.5q-20 -137 -117.5 -193.5t-308.5 -72.5l-277 -21q2 -78 41 -103.5t131 -25.5q195 0 406 25l24 -232q-182 -82 -467 -82q-315 0 -429.5 134.5t-84.5 412.5zM381 1247l22 139q8 68 76 68h133q72 0 60 -63 l-21 -146q-8 -63 -69 -63h-142q-70 0 -59 65zM457 590l172 16q76 6 109.5 27.5t39.5 83.5q4 49 -20.5 64.5t-102.5 13.5q-94 -2 -133.5 -42t-64.5 -163zM756 1247l20 142q12 66 74 65h137q68 0 60 -63l-23 -144q-7 -65 -70 -65h-139q-70 0 -59 65z" />
<glyph unicode="&#xec;" horiz-adv-x="598" d="M-41 1321l150 238l452 -308l-119 -153zM29 0l143 1018h373l-142 -1018h-374z" />
<glyph unicode="&#xed;" horiz-adv-x="598" d="M29 0l143 1018h373l-142 -1018h-374zM193 1253l479 314l127 -262l-518 -207z" />
<glyph unicode="&#xee;" horiz-adv-x="598" d="M-39 1229l305 276h252l266 -286l-104 -125l-287 196h-16l-328 -194zM29 0l143 1018h373l-142 -1018h-374z" />
<glyph unicode="&#xef;" horiz-adv-x="598" d="M29 0l143 1018h373l-142 -1018h-374zM57 1247l23 139q8 68 76 68h133q72 0 59 -63l-22 -146q-6 -63 -68 -63h-141q-70 0 -60 65zM432 1247l21 142q12 65 73 65h136q70 0 61 -63l-23 -144q-8 -66 -69 -65h-139q-72 0 -60 65z" />
<glyph unicode="&#xf0;" horiz-adv-x="1210" d="M49 455q31 242 149.5 356.5t331.5 114.5q150 0 238 -62q0 199 -91 270.5t-323 57.5l43 238q285 16 457 -66l184 162l183 -205l-164 -139q125 -207 76 -604q-41 -328 -184.5 -467.5t-430.5 -139.5q-258 0 -380 120t-89 364zM438 449q-18 -125 2.5 -169t102.5 -44 q96 0 136 77.5t69 292.5l6 43q-51 29 -123 29q-92 0 -132 -52.5t-61 -176.5z" />
<glyph unicode="&#xf1;" horiz-adv-x="1247" d="M20 0l142 1018h293l4 -191q223 219 454 220q131 0 205 -76t53 -215l-106 -756h-373l90 639q8 57 -5 76.5t-56 15.5q-96 -2 -242 -117l-86 -614h-373zM334 1171q-2 158 52 237t144 77q66 -2 181.5 -46t138.5 -48q51 -10 73.5 12t28.5 78l154 -15q6 -156 -47 -234.5 t-144 -76.5q-70 2 -188.5 46t-138.5 48q-51 8 -72 -14.5t-29 -77.5z" />
<glyph unicode="&#xf2;" d="M55 522q41 291 174 408t430 117q299 0 418 -128t76 -425q-41 -287 -175 -403t-425 -116q-297 0 -419 127t-79 420zM287 1321l151 238l453 -308l-121 -153zM442 494q-23 -158 1 -208t122 -50q96 0 137 57t66 229q25 160 2 211t-117 51q-102 0 -143 -56t-68 -234z" />
<glyph unicode="&#xf3;" d="M55 522q41 291 174 408t430 117q299 0 418 -128t76 -425q-41 -287 -175 -403t-425 -116q-297 0 -419 127t-79 420zM442 494q-23 -158 1 -208t122 -50q96 0 137 57t66 229q25 160 2 211t-117 51q-102 0 -143 -56t-68 -234zM520 1253l479 314l127 -262l-518 -207z" />
<glyph unicode="&#xf4;" d="M55 522q41 291 174 408t430 117q299 0 418 -128t76 -425q-41 -287 -175 -403t-425 -116q-297 0 -419 127t-79 420zM289 1229l305 276h252l266 -286l-104 -125l-287 196h-16l-328 -194zM442 494q-23 -158 1 -208t122 -50q96 0 137 57t66 229q25 160 2 211t-117 51 q-102 0 -143 -56t-68 -234z" />
<glyph unicode="&#xf5;" d="M55 522q41 291 174 408t430 117q299 0 418 -128t76 -425q-41 -287 -175 -403t-425 -116q-297 0 -419 127t-79 420zM326 1171q-2 158 51 237t145 77q63 -2 180 -46t138 -48q53 -10 74.5 12t29.5 78l152 -15q6 -156 -47.5 -234.5t-143.5 -76.5q-70 2 -187.5 46t-139.5 48 q-51 8 -72 -14.5t-29 -77.5zM442 494q-23 -158 1 -208t122 -50q96 0 137 57t66 229q25 160 2 211t-117 51q-102 0 -143 -56t-68 -234z" />
<glyph unicode="&#xf6;" d="M55 522q41 291 174 408t430 117q299 0 418 -128t76 -425q-41 -287 -175 -403t-425 -116q-297 0 -419 127t-79 420zM385 1247l23 139q7 68 75 68h133q72 0 60 -63l-21 -146q-8 -63 -69 -63h-142q-70 0 -59 65zM442 494q-23 -158 1 -208t122 -50q96 0 137 57t66 229 q25 160 2 211t-117 51q-102 0 -143 -56t-68 -234zM760 1247l20 142q13 65 74 65h137q68 0 60 -63l-23 -144q-6 -66 -70 -65h-139q-70 0 -59 65z" />
<glyph unicode="&#xf7;" horiz-adv-x="1099" d="M49 463l41 272h961l-41 -272h-961zM297 176l6 45q8 80 46 109.5t122 29.5h74q84 0 114.5 -31.5t18.5 -113.5l-6 -47q-10 -82 -44 -110.5t-116 -28.5h-84q-84 0 -114.5 32.5t-16.5 114.5zM412 979l6 45q12 82 49 110.5t121 28.5h76q82 0 112.5 -31.5t18.5 -111.5l-4 -45 q-12 -82 -47 -113t-115 -31h-84q-84 0 -114 33t-19 115z" />
<glyph unicode="&#xf8;" d="M55 522q41 291 174 408t430 117q74 0 129 -9l123 199l234 -129l-101 -160q154 -127 109 -454q-41 -287 -175 -403t-425 -116q-70 0 -100 5l-121 -193l-234 127l90 143q-184 119 -133 465zM442 494q-23 -158 1 -208t122 -50q96 0 137 57t66 229q25 160 2.5 211t-117.5 51 q-102 0 -143 -56t-68 -234z" />
<glyph unicode="&#xf9;" horiz-adv-x="1230" d="M51 262l105 756h374l-94 -651q-6 -45 9.5 -63.5t50.5 -18.5q92 0 233 112l88 621h369l-142 -1018h-290l-2 182q-219 -211 -428 -211q-152 0 -222.5 77t-50.5 214zM287 1341l149 236l453 -305l-119 -156z" />
<glyph unicode="&#xfa;" horiz-adv-x="1230" d="M51 262l105 756h374l-94 -651q-6 -45 9.5 -63.5t50.5 -18.5q92 0 233 112l88 621h369l-142 -1018h-290l-2 182q-219 -211 -428 -211q-152 0 -222.5 77t-50.5 214zM520 1272l479 315l127 -264l-518 -207z" />
<glyph unicode="&#xfb;" horiz-adv-x="1230" d="M51 262l105 756h374l-94 -651q-6 -45 9.5 -63.5t50.5 -18.5q92 0 233 112l88 621h369l-142 -1018h-290l-2 182q-219 -211 -428 -211q-152 0 -222.5 77t-50.5 214zM289 1247l305 277h252l266 -287l-104 -123l-287 197h-16l-328 -197z" />
<glyph unicode="&#xfc;" horiz-adv-x="1230" d="M51 262l105 756h374l-94 -651q-6 -45 9.5 -63.5t50.5 -18.5q92 0 233 112l88 621h369l-142 -1018h-290l-2 182q-219 -211 -428 -211q-152 0 -222.5 77t-50.5 214zM385 1266l23 139q8 70 75 70h133q72 0 60 -66l-23 -143q-6 -64 -67 -64h-142q-68 0 -59 64zM760 1266 l20 141q10 68 74 68h135q72 0 62 -66l-23 -143q-9 -64 -70 -64h-139q-72 0 -59 64z" />
<glyph unicode="&#xfd;" d="M66 1018h405l53 -752q0 -33 33 -33h66q145 316 217 785h397q-37 -242 -141.5 -523.5t-192.5 -433.5q-152 -254 -339 -368.5t-435 -112.5l-31 211q8 2 47 14.5t49.5 15.5t42 14t45 17.5t41 18.5t43 24.5t38 28t41 34.5t36.5 42h-143q-49 0 -84 29.5t-43 76.5zM494 1253 l479 314l127 -262l-518 -207z" />
<glyph unicode="&#xfe;" horiz-adv-x="1239" d="M-31 -379l252 1813h373l-33 -244q-20 -150 -53 -279l6 -14q150 145 342.5 145t263 -132t35.5 -425q-35 -281 -149.5 -397.5t-296.5 -116.5q-180 0 -320 27q-8 -111 -18 -162l-31 -215h-371zM424 211h127q119 0 160 47t63 221q23 152 11.5 212.5t-74.5 60.5 q-70 0 -125.5 -45t-112.5 -132z" />
<glyph unicode="&#xff;" d="M66 1018h405l53 -752q0 -33 33 -33h66q145 316 217 785h397q-37 -242 -141.5 -523.5t-192.5 -433.5q-152 -254 -339 -368.5t-435 -112.5l-31 211q8 2 47 14.5t49.5 15.5t42 14t45 17.5t41 18.5t43 24.5t38 28t41 34.5t36.5 42h-143q-49 0 -84 29.5t-43 76.5zM360 1247 l21 139q8 68 78 68h131q72 0 59 -63l-20 -146q-9 -63 -70 -63h-139q-72 0 -60 65zM733 1247l23 142q8 66 71 65h138q72 0 59 -63l-20 -144q-9 -65 -70 -65h-141q-70 0 -60 65z" />
<glyph unicode="&#x152;" horiz-adv-x="1974" d="M96 721q59 420 211 570.5t494 150.5q203 0 356 -56q66 33 156 33q502 0 692 -24l-47 -275h-498q-43 0 -73.5 -25.5t-34.5 -68.5l-25 -174h520l-30 -248h-525l-32 -231q-12 -80 69 -80h510l-6 -279q-174 -20 -666 -20q-109 0 -186 45q-152 -68 -344 -68q-360 0 -481 160 t-60 590zM488.5 351q27.5 -85 146.5 -85q147 0 229 29l2 22l113 805l2 11q-66 14 -180 14q-137 0 -200.5 -95.5t-102.5 -359.5q-37 -256 -9.5 -341z" />
<glyph unicode="&#x153;" horiz-adv-x="1857" d="M55 522q41 291 172 408t420 117q205 0 330 -91q139 90 369 91q285 0 390 -91.5t79 -275.5q-20 -137 -116.5 -193.5t-303.5 -72.5l-271 -21q2 -78 40 -103.5t126 -25.5q191 0 398 25l22 -232q-178 -82 -457 -82q-217 0 -350 99q-141 -98 -362 -99q-291 0 -410 127t-76 420 zM439 286q22 -50 114 -50t130 56t62 230q23 160 2.5 211t-108.5 51q-96 0 -134 -56t-65 -234q-23 -158 -1 -208zM1147 590l162 16q76 6 109.5 27.5t39.5 83.5q4 49 -19.5 64.5t-101.5 13.5q-92 -2 -129.5 -42t-60.5 -163z" />
<glyph unicode="&#x178;" horiz-adv-x="1288" d="M102 1413h385l131 -485q20 -92 21 -195h27q12 86 65 195l270 485h412l-602 -969l-61 -444h-388l66 463zM455 1626l20 141q8 68 78 68h131q70 0 61 -66l-22 -143q-9 -63 -70 -63h-139q-72 0 -59 63zM827 1626l23 141q10 68 72 68h137q72 0 59 -66l-20 -141q-9 -65 -70 -65 h-141q-68 0 -60 63z" />
<glyph unicode="&#x2c6;" horiz-adv-x="950" d="M160 1229l307 276h252l264 -286l-104 -123l-285 194h-16l-330 -194z" />
<glyph unicode="&#x2dc;" horiz-adv-x="923" d="M186 1157q-2 158 52.5 238t146.5 75q63 -2 178 -45t139 -47q53 -12 75 11.5t28 78.5l153 -14q6 -158 -47 -236.5t-143 -76.5q-68 2 -185.5 47t-142.5 49q-51 8 -71.5 -14.5t-28.5 -79.5z" />
<glyph unicode="&#x2000;" horiz-adv-x="979" />
<glyph unicode="&#x2001;" horiz-adv-x="1958" />
<glyph unicode="&#x2002;" horiz-adv-x="979" />
<glyph unicode="&#x2003;" horiz-adv-x="1958" />
<glyph unicode="&#x2004;" horiz-adv-x="652" />
<glyph unicode="&#x2005;" horiz-adv-x="489" />
<glyph unicode="&#x2006;" horiz-adv-x="326" />
<glyph unicode="&#x2007;" horiz-adv-x="326" />
<glyph unicode="&#x2008;" horiz-adv-x="244" />
<glyph unicode="&#x2009;" horiz-adv-x="391" />
<glyph unicode="&#x200a;" horiz-adv-x="108" />
<glyph unicode="&#x2010;" horiz-adv-x="811" d="M78 412l33 225h602l-33 -225h-602z" />
<glyph unicode="&#x2011;" horiz-adv-x="811" d="M78 412l33 225h602l-33 -225h-602z" />
<glyph unicode="&#x2012;" horiz-adv-x="811" d="M78 412l33 225h602l-33 -225h-602z" />
<glyph unicode="&#x2013;" horiz-adv-x="1116" d="M78 412l33 225h907l-33 -225h-907z" />
<glyph unicode="&#x2014;" horiz-adv-x="1718" d="M78 412l33 225h1507l-33 -225h-1507z" />
<glyph unicode="&#x2018;" horiz-adv-x="456" d="M131 979l16 119q14 92 56.5 194.5t97.5 173.5l141 -53q-39 -90 -75 -248q53 2 72.5 -23.5t13.5 -80.5l-15 -90q-8 -66 -38.5 -90.5t-96.5 -24.5h-63q-66 0 -91.5 28.5t-17.5 94.5z" />
<glyph unicode="&#x2019;" horiz-adv-x="454" d="M156 1235l12 92q10 66 42 90.5t95 24.5h64q66 0 90 -29t16 -96l-16 -119q-12 -90 -54.5 -192.5t-97.5 -174.5l-141 54q41 98 76 248q-98 -6 -86 102z" />
<glyph unicode="&#x201a;" horiz-adv-x="477" d="M12 88l15 90q10 66 39.5 90.5t95.5 24.5h65q66 0 90.5 -28.5t16.5 -94.5l-17 -119q-12 -92 -55 -193.5t-98 -174.5l-139 53q41 104 75 248q-53 -2 -72.5 23.5t-15.5 80.5z" />
<glyph unicode="&#x201c;" horiz-adv-x="845" d="M131 979l16 119q14 92 56.5 194.5t97.5 173.5l141 -53q-39 -90 -75 -248q53 2 72.5 -23.5t13.5 -80.5l-15 -90q-8 -66 -38.5 -90.5t-96.5 -24.5h-63q-66 0 -91.5 28.5t-17.5 94.5zM522 979l17 119q12 90 54 192.5t97 175.5l141 -53q-39 -90 -75 -248q53 2 72.5 -23.5 t13.5 -80.5l-13 -90q-10 -66 -40.5 -90.5t-96.5 -24.5h-63q-66 0 -90.5 28.5t-16.5 94.5z" />
<glyph unicode="&#x201d;" horiz-adv-x="843" d="M156 1235l12 92q10 66 42 90.5t95 24.5h64q66 0 90 -29t16 -96l-16 -119q-12 -90 -54.5 -192.5t-97.5 -174.5l-141 54q41 98 76 248q-98 -6 -86 102zM545 1235l12 92q10 66 42 90.5t95 24.5h64q66 0 90 -29t16 -96l-14 -119q-14 -92 -56 -194.5t-98 -172.5l-141 54 q37 84 76 248q-98 -6 -86 102z" />
<glyph unicode="&#x201e;" horiz-adv-x="866" d="M12 86l15 92q10 66 41 90.5t94 24.5h65q66 0 90.5 -28.5t16.5 -94.5l-17 -121q-12 -90 -55 -193.5t-98 -172.5l-139 53q41 104 75 248q-53 -2 -72.5 23.5t-15.5 78.5zM403 86l13 92q10 66 42 90.5t95 24.5h63q66 0 90.5 -28.5t16.5 -94.5l-16 -121q-12 -90 -55.5 -192.5 t-96.5 -173.5l-141 53q41 104 75 248q-53 -2 -72.5 23.5t-13.5 78.5z" />
<glyph unicode="&#x2022;" horiz-adv-x="768" d="M121 545l6 33q18 131 71.5 178t190.5 47h43q127 0 173 -54.5t30 -185.5l-6 -31q-20 -141 -71.5 -190t-182.5 -49h-47q-131 0 -178.5 56.5t-28.5 195.5z" />
<glyph unicode="&#x2026;" horiz-adv-x="1855" d="M-10 135l12 92q18 121 143 121h78q66 0 98.5 -36t24.5 -101l-12 -90q-14 -121 -141 -121h-80q-141 0 -123 135zM664 135l12 92q14 121 143 121h78q66 0 98.5 -36t24.5 -101l-12 -90q-14 -121 -142 -121h-80q-141 0 -122 135zM1337 135l11 92q18 121 143 121h80 q66 0 98.5 -36t24.5 -101l-13 -90q-18 -121 -143 -121h-78q-141 0 -123 135z" />
<glyph unicode="&#x202f;" horiz-adv-x="391" />
<glyph unicode="&#x2039;" horiz-adv-x="643" d="M45 475l6 80l344 403l193 -127l-211 -317l149 -330l-192 -127z" />
<glyph unicode="&#x203a;" horiz-adv-x="641" d="M29 184l211 318l-150 329l193 127l288 -415l-6 -82l-346 -404z" />
<glyph unicode="&#x205f;" horiz-adv-x="489" />
<glyph unicode="&#x20ac;" horiz-adv-x="1308" d="M49 467l29 211h934l-47 -211h-369q14 -166 162 -182q158 -18 399 22l17 -272q-168 -59 -402 -60q-281 0 -421 121t-152 371h-150zM90 748l31 208h139q70 250 227.5 366t448.5 116q203 0 371 -54l-47 -266q-45 6 -156 8t-197 -4q-94 -10 -149.5 -47t-87.5 -119h426 l-49 -208h-957z" />
<glyph unicode="&#x2122;" horiz-adv-x="2019" d="M188 1231l27 194h715l-27 -194h-229l-84 -584h-254l82 584h-230zM883 647l125 696q8 45 27.5 63.5t60.5 18.5h229q39 0 62.5 -23.5t25.5 -62.5l25 -284q2 -57 -4 -129h16q20 98 29 127l98 301q20 71 98 71h234q43 0 66.5 -26.5t19.5 -69.5l-72 -682h-231l57 588h-16 l-136 -391q-20 -70 -96 -70h-139q-41 0 -65.5 22.5t-26.5 61.5l-29 377h-20l-105 -588h-233z" />
<glyph unicode="&#x25fc;" horiz-adv-x="1013" d="M0 0v1014h1014v-1014h-1014z" />
<glyph unicode="&#xfb01;" horiz-adv-x="1423" d="M-205 -369l58 232h114q70 0 100.5 25.5t41.5 99.5l116 796h-170l31 224l174 10l21 137q23 158 110.5 241t263.5 83q190 0 310 -27l-50 -229h-133q-70 0 -101.5 -30t-41.5 -103l-10 -72h741l-141 -1018h-373l109 784h-371l-127 -862q-45 -317 -373 -317q-82 0 -299 26z M1034 1282l17 107q6 55 31.5 78.5t80.5 23.5h158q55 0 83 -30.5t19 -86.5l-14 -106q-8 -55 -32.5 -79t-80.5 -24h-159q-55 0 -83 31t-20 86z" />
<glyph unicode="&#xfb02;" horiz-adv-x="1511" d="M-199 -369l56 232h114q70 0 100.5 25.5t41.5 99.5l112 796h-172l27 224l176 10l20 137q20 158 108.5 242t266.5 82q551 0 783 -45l-146 -1096q-6 -47 8.5 -63.5t63.5 -16.5h72l18 -242q-80 -43 -258 -43q-150 0 -227.5 76t-61.5 207l139 971h-264q-66 0 -99.5 -32 t-43.5 -105l-10 -72h241l-32 -234h-242l-119 -862q-45 -317 -373 -317q-86 0 -299 26z" />
</font>
</defs>
</svg>
